<mxfile host="Electron" agent="Mozilla/5.0 (Windows NT 10.0; WOW64) AppleWebKit/537.36 (KHTML, like Gecko) draw.io/24.7.8 Chrome/128.0.6613.36 Electron/32.0.1 Safari/537.36" version="24.7.8">
  <diagram name="Pagina-1" id="7DfzZVG-tJduTDwVA5c8">
    <mxGraphModel dx="1687" dy="993" grid="1" gridSize="10" guides="1" tooltips="1" connect="1" arrows="1" fold="1" page="1" pageScale="1" pageWidth="1654" pageHeight="1169" math="0" shadow="0">
      <root>
        <mxCell id="0" />
        <mxCell id="1" parent="0" />
        <mxCell id="pa4lcD4NxZwqG64DJ4tL-1" value="" style="ellipse;whiteSpace=wrap;html=1;aspect=fixed;" parent="1" vertex="1">
          <mxGeometry x="600" y="265" width="40" height="40" as="geometry" />
        </mxCell>
        <mxCell id="pa4lcD4NxZwqG64DJ4tL-2" value="" style="ellipse;whiteSpace=wrap;html=1;aspect=fixed;" parent="1" vertex="1">
          <mxGeometry x="600" y="369" width="40" height="40" as="geometry" />
        </mxCell>
        <mxCell id="pa4lcD4NxZwqG64DJ4tL-3" value="" style="endArrow=classic;html=1;rounded=0;" parent="1" source="pa4lcD4NxZwqG64DJ4tL-1" target="pa4lcD4NxZwqG64DJ4tL-2" edge="1">
          <mxGeometry width="50" height="50" relative="1" as="geometry">
            <mxPoint x="700" y="460" as="sourcePoint" />
            <mxPoint x="750" y="410" as="targetPoint" />
          </mxGeometry>
        </mxCell>
        <mxCell id="pa4lcD4NxZwqG64DJ4tL-4" value="" style="ellipse;whiteSpace=wrap;html=1;aspect=fixed;" parent="1" vertex="1">
          <mxGeometry x="600" y="474" width="40" height="40" as="geometry" />
        </mxCell>
        <mxCell id="pa4lcD4NxZwqG64DJ4tL-5" value="" style="ellipse;whiteSpace=wrap;html=1;aspect=fixed;" parent="1" vertex="1">
          <mxGeometry x="600" y="578" width="40" height="40" as="geometry" />
        </mxCell>
        <mxCell id="pa4lcD4NxZwqG64DJ4tL-6" value="" style="endArrow=classic;html=1;rounded=0;" parent="1" source="pa4lcD4NxZwqG64DJ4tL-4" target="pa4lcD4NxZwqG64DJ4tL-5" edge="1">
          <mxGeometry width="50" height="50" relative="1" as="geometry">
            <mxPoint x="700" y="620" as="sourcePoint" />
            <mxPoint x="750" y="570" as="targetPoint" />
          </mxGeometry>
        </mxCell>
        <mxCell id="pa4lcD4NxZwqG64DJ4tL-7" value="" style="ellipse;whiteSpace=wrap;html=1;aspect=fixed;" parent="1" vertex="1">
          <mxGeometry x="600" y="678" width="40" height="40" as="geometry" />
        </mxCell>
        <mxCell id="pa4lcD4NxZwqG64DJ4tL-10" value="" style="endArrow=classic;html=1;rounded=0;" parent="1" source="pa4lcD4NxZwqG64DJ4tL-2" target="pa4lcD4NxZwqG64DJ4tL-4" edge="1">
          <mxGeometry width="50" height="50" relative="1" as="geometry">
            <mxPoint x="700" y="460" as="sourcePoint" />
            <mxPoint x="630" y="430" as="targetPoint" />
          </mxGeometry>
        </mxCell>
        <mxCell id="pa4lcD4NxZwqG64DJ4tL-11" value="" style="endArrow=classic;html=1;rounded=0;" parent="1" source="pa4lcD4NxZwqG64DJ4tL-5" target="pa4lcD4NxZwqG64DJ4tL-7" edge="1">
          <mxGeometry width="50" height="50" relative="1" as="geometry">
            <mxPoint x="700" y="460" as="sourcePoint" />
            <mxPoint x="750" y="410" as="targetPoint" />
          </mxGeometry>
        </mxCell>
        <mxCell id="pa4lcD4NxZwqG64DJ4tL-12" value="" style="ellipse;whiteSpace=wrap;html=1;aspect=fixed;" parent="1" vertex="1">
          <mxGeometry x="520" y="421" width="40" height="40" as="geometry" />
        </mxCell>
        <mxCell id="pa4lcD4NxZwqG64DJ4tL-13" value="" style="endArrow=classic;html=1;rounded=0;" parent="1" source="pa4lcD4NxZwqG64DJ4tL-12" target="pa4lcD4NxZwqG64DJ4tL-4" edge="1">
          <mxGeometry width="50" height="50" relative="1" as="geometry">
            <mxPoint x="620" y="580" as="sourcePoint" />
            <mxPoint x="540" y="440" as="targetPoint" />
          </mxGeometry>
        </mxCell>
        <mxCell id="pa4lcD4NxZwqG64DJ4tL-14" value="" style="endArrow=classic;html=1;rounded=0;" parent="1" source="pa4lcD4NxZwqG64DJ4tL-2" target="pa4lcD4NxZwqG64DJ4tL-12" edge="1">
          <mxGeometry width="50" height="50" relative="1" as="geometry">
            <mxPoint x="700" y="460" as="sourcePoint" />
            <mxPoint x="750" y="410" as="targetPoint" />
          </mxGeometry>
        </mxCell>
        <mxCell id="pa4lcD4NxZwqG64DJ4tL-15" value="" style="ellipse;whiteSpace=wrap;html=1;aspect=fixed;" parent="1" vertex="1">
          <mxGeometry x="520" y="526" width="40" height="40" as="geometry" />
        </mxCell>
        <mxCell id="pa4lcD4NxZwqG64DJ4tL-16" value="" style="endArrow=classic;html=1;rounded=0;" parent="1" source="pa4lcD4NxZwqG64DJ4tL-15" target="pa4lcD4NxZwqG64DJ4tL-5" edge="1">
          <mxGeometry width="50" height="50" relative="1" as="geometry">
            <mxPoint x="620" y="660" as="sourcePoint" />
            <mxPoint x="540" y="520" as="targetPoint" />
          </mxGeometry>
        </mxCell>
        <mxCell id="pa4lcD4NxZwqG64DJ4tL-18" value="" style="endArrow=classic;html=1;rounded=0;" parent="1" source="pa4lcD4NxZwqG64DJ4tL-4" target="pa4lcD4NxZwqG64DJ4tL-15" edge="1">
          <mxGeometry width="50" height="50" relative="1" as="geometry">
            <mxPoint x="700" y="460" as="sourcePoint" />
            <mxPoint x="750" y="410" as="targetPoint" />
          </mxGeometry>
        </mxCell>
        <mxCell id="pa4lcD4NxZwqG64DJ4tL-21" value="&lt;font style=&quot;font-size: 20px;&quot;&gt;ni&lt;/font&gt;" style="text;html=1;align=center;verticalAlign=middle;whiteSpace=wrap;rounded=0;" parent="1" vertex="1">
          <mxGeometry x="640" y="165" width="60" height="30" as="geometry" />
        </mxCell>
        <mxCell id="pa4lcD4NxZwqG64DJ4tL-22" value="" style="ellipse;whiteSpace=wrap;html=1;aspect=fixed;" parent="1" vertex="1">
          <mxGeometry x="600" y="160" width="40" height="40" as="geometry" />
        </mxCell>
        <mxCell id="pa4lcD4NxZwqG64DJ4tL-25" value="" style="endArrow=classic;html=1;rounded=0;" parent="1" source="pa4lcD4NxZwqG64DJ4tL-22" target="pa4lcD4NxZwqG64DJ4tL-1" edge="1">
          <mxGeometry width="50" height="50" relative="1" as="geometry">
            <mxPoint x="700" y="450" as="sourcePoint" />
            <mxPoint x="750" y="400" as="targetPoint" />
          </mxGeometry>
        </mxCell>
        <mxCell id="pa4lcD4NxZwqG64DJ4tL-26" value="&lt;font style=&quot;font-size: 20px;&quot;&gt;1&lt;/font&gt;" style="text;html=1;align=center;verticalAlign=middle;whiteSpace=wrap;rounded=0;" parent="1" vertex="1">
          <mxGeometry x="640" y="270" width="60" height="30" as="geometry" />
        </mxCell>
        <mxCell id="pa4lcD4NxZwqG64DJ4tL-28" value="&lt;font style=&quot;font-size: 20px;&quot;&gt;2&lt;/font&gt;" style="text;html=1;align=center;verticalAlign=middle;whiteSpace=wrap;rounded=0;" parent="1" vertex="1">
          <mxGeometry x="640" y="374" width="60" height="30" as="geometry" />
        </mxCell>
        <mxCell id="pa4lcD4NxZwqG64DJ4tL-29" value="&lt;font style=&quot;font-size: 20px;&quot;&gt;3&lt;/font&gt;" style="text;html=1;align=center;verticalAlign=middle;whiteSpace=wrap;rounded=0;" parent="1" vertex="1">
          <mxGeometry x="460" y="426" width="60" height="30" as="geometry" />
        </mxCell>
        <mxCell id="pa4lcD4NxZwqG64DJ4tL-30" value="&lt;font style=&quot;font-size: 20px;&quot;&gt;4&lt;/font&gt;" style="text;html=1;align=center;verticalAlign=middle;whiteSpace=wrap;rounded=0;" parent="1" vertex="1">
          <mxGeometry x="640" y="479" width="60" height="30" as="geometry" />
        </mxCell>
        <mxCell id="pa4lcD4NxZwqG64DJ4tL-31" value="&lt;font style=&quot;font-size: 20px;&quot;&gt;5&lt;/font&gt;" style="text;html=1;align=center;verticalAlign=middle;whiteSpace=wrap;rounded=0;" parent="1" vertex="1">
          <mxGeometry x="460" y="531" width="60" height="30" as="geometry" />
        </mxCell>
        <mxCell id="pa4lcD4NxZwqG64DJ4tL-32" value="&lt;font style=&quot;font-size: 20px;&quot;&gt;6&lt;/font&gt;" style="text;html=1;align=center;verticalAlign=middle;whiteSpace=wrap;rounded=0;" parent="1" vertex="1">
          <mxGeometry x="640" y="583" width="60" height="30" as="geometry" />
        </mxCell>
        <mxCell id="pa4lcD4NxZwqG64DJ4tL-33" value="&lt;font style=&quot;font-size: 20px;&quot;&gt;nf&lt;/font&gt;" style="text;html=1;align=center;verticalAlign=middle;whiteSpace=wrap;rounded=0;" parent="1" vertex="1">
          <mxGeometry x="640" y="683" width="60" height="30" as="geometry" />
        </mxCell>
        <mxCell id="pa4lcD4NxZwqG64DJ4tL-34" value="&lt;font color=&quot;#00cc00&quot; style=&quot;font-size: 20px;&quot;&gt;T&lt;/font&gt;" style="text;html=1;align=center;verticalAlign=middle;whiteSpace=wrap;rounded=0;" parent="1" vertex="1">
          <mxGeometry x="540" y="391" width="60" height="30" as="geometry" />
        </mxCell>
        <mxCell id="pa4lcD4NxZwqG64DJ4tL-35" value="&lt;font color=&quot;#00cc00&quot; style=&quot;font-size: 20px;&quot;&gt;T&lt;/font&gt;" style="text;html=1;align=center;verticalAlign=middle;whiteSpace=wrap;rounded=0;" parent="1" vertex="1">
          <mxGeometry x="540" y="496" width="60" height="30" as="geometry" />
        </mxCell>
        <mxCell id="pa4lcD4NxZwqG64DJ4tL-36" value="&lt;font color=&quot;#ff0000&quot; style=&quot;font-size: 20px;&quot;&gt;F&lt;/font&gt;" style="text;html=1;align=center;verticalAlign=middle;whiteSpace=wrap;rounded=0;" parent="1" vertex="1">
          <mxGeometry x="610" y="426" width="60" height="30" as="geometry" />
        </mxCell>
        <mxCell id="pa4lcD4NxZwqG64DJ4tL-37" value="&lt;font color=&quot;#ff0000&quot; style=&quot;font-size: 20px;&quot;&gt;F&lt;/font&gt;" style="text;html=1;align=center;verticalAlign=middle;whiteSpace=wrap;rounded=0;" parent="1" vertex="1">
          <mxGeometry x="610" y="531" width="60" height="30" as="geometry" />
        </mxCell>
        <mxCell id="UpencozlsfmtjMhBx_ZE-1" value="public boolean isEmailAndPasswordValid(String email, String password) {&#xa;&#xa;    boolean valid = true;&#xa;&#xa;&#xa;    if (email == null || &#xa;        email.isBlank() || &#xa;        !email.matches(&quot;^[A-Za-z0-9+_.-]+@(.+)$&quot;)) {&#xa;       valid = false;&#xa;    }&#xa;&#xa;    if (password == null ||&#xa;        password.isBlank()) {&#xa;        valid = false;&#xa;    }&#xa;&#xa;    return valid;&#xa;}" style="text;align=left;verticalAlign=middle;whiteSpace=wrap;rounded=0;glass=0;horizontal=1;fontFamily=Courier New;fontSize=14;fontStyle=1" vertex="1" parent="1">
          <mxGeometry x="750" y="206" width="610" height="400" as="geometry" />
        </mxCell>
      </root>
    </mxGraphModel>
  </diagram>
</mxfile>
